# Blender v2.79 (sub 0) OBJ File: ''
# www.blender.org
mtllib rocaOBJ.mtl
o Box001
v -5.900797 8.620000 -8.391802
v -8.269598 12.001800 -5.684903
v -5.325998 13.912900 -6.788302
v -6.103298 0.770600 -9.062702
v -9.667798 7.742900 -6.932902
v -9.014998 -5.925700 -6.936002
v -5.227697 -7.126400 -8.226802
v -7.515098 -10.508900 -6.182802
v -4.510398 -12.815100 -7.096002
v -0.250798 9.409100 -9.062500
v -0.316898 14.905000 -7.137100
v -0.116196 0.781300 -9.612000
v 0.108002 -8.077700 -8.685500
v 0.286402 -14.314600 -7.433500
v 4.742702 14.431400 -6.826998
v 5.456502 9.243100 -8.431998
v 5.920602 1.122900 -8.931198
v 5.563902 -7.482700 -8.332198
v 4.976802 -13.620200 -6.681398
v 7.926302 12.988000 -5.795797
v 9.330302 8.792800 -6.906698
v 9.795802 1.589800 -7.135198
v 9.321002 -6.335100 -6.883398
v 8.167902 -11.771600 -6.074398
v -5.645002 8.486300 7.585498
v -8.036002 11.935100 4.683398
v -9.115902 7.594900 5.669998
v -5.945404 0.777300 8.572598
v -9.499502 0.933700 6.240498
v -8.692402 -5.780900 5.977797
v -5.144302 -7.097900 7.762798
v -7.244302 -10.372500 5.124198
v -4.261502 -12.545000 6.065100
v -0.260202 9.392900 8.842200
v -5.107602 13.737800 5.758598
v -0.088004 0.775400 9.612000
v 0.087998 -8.087700 8.710400
v 0.249798 -14.221300 6.648500
v 4.727698 14.320600 6.026802
v 5.462098 9.221100 8.173702
v 5.791697 1.100400 8.622002
v 5.532998 -7.482800 8.045300
v 4.976998 -13.520400 6.068202
v 8.206800 13.218900 5.521802
v 9.289498 8.819300 6.291203
v 9.702798 1.536400 6.422402
v 9.304598 -6.316700 6.241802
v 8.060998 -11.729100 5.303002
v -11.794698 8.510200 -4.249204
v -12.271898 1.176300 -4.658704
v -10.108598 0.952600 -7.563802
v -10.907798 -6.255400 -4.398204
v -8.164298 -11.683900 -3.823503
v -11.848400 8.947600 -0.735204
v -9.471798 13.620700 -3.537503
v -13.641200 1.288400 -0.544304
v -11.752500 -6.626900 -0.432904
v -8.947600 -12.525200 -0.368802
v -9.122900 13.474500 2.588197
v -10.900702 8.319500 2.980696
v -11.967202 1.161000 3.420596
v -10.804802 -6.255600 3.458596
v -8.578602 -11.946400 3.215497
v -4.848698 -15.943200 -4.467902
v 0.487202 -17.739700 -4.368300
v 5.611001 -17.313200 -4.381298
v 9.149602 -13.584900 -3.787297
v -4.760100 -16.694599 -0.468602
v 0.575300 -19.326000 -0.734200
v 5.687100 -18.355801 -0.389798
v 9.795500 -14.570500 -0.344996
v -4.495100 -15.523100 3.286898
v 0.437198 -17.643101 3.388200
v 5.540200 -17.097200 3.165402
v 9.260098 -13.658400 3.075702
v 11.481902 -6.987500 -4.278296
v 12.330002 1.930500 -4.549596
v 11.717402 9.894400 -4.432796
v 9.079902 14.580000 -3.676697
v 12.308100 -7.538800 -0.486196
v 13.641200 2.056200 -0.545996
v 12.205300 10.439300 -0.459096
v 9.575800 15.187600 -0.472896
v 11.526498 -7.055700 3.438704
v 12.489298 1.895900 3.663904
v 11.487798 9.819300 3.428404
v 9.122398 14.517400 3.063303
v 5.227100 17.289600 -4.184398
v -0.318898 18.306999 -4.497500
v -5.954500 17.113501 -4.261902
v 5.640600 18.565599 -0.446298
v -0.297700 19.326000 -0.539900
v -5.966900 17.655100 -0.666802
v -9.807900 14.491200 -0.554704
v 5.214000 17.294600 3.377402
v -0.320402 18.333000 3.597200
v -5.493102 16.400299 2.983898
v -0.321402 14.793400 6.432400
vt 0.188000 0.573600
vt 0.122100 0.623300
vt 0.101400 0.573200
vt 0.315900 0.589400
vt 0.193500 0.622000
vt 0.387100 0.654900
vt 0.438200 0.624100
vt 0.459100 0.683900
vt 0.514000 0.663600
vt 0.184800 0.446100
vt 0.082900 0.425100
vt 0.119100 0.388100
vt 0.315400 0.512000
vt 0.141900 0.499800
vt 0.397000 0.606400
vt 0.461500 0.550000
vt 0.497300 0.609800
vt 0.557700 0.560800
vt 0.171000 0.350700
vt 0.240200 0.390500
vt 0.362500 0.441300
vt 0.493800 0.479400
vt 0.582700 0.494500
vt 0.221600 0.321800
vt 0.283200 0.352200
vt 0.384000 0.388200
vt 0.488800 0.416400
vt 0.568900 0.433400
vt 0.140700 0.902900
vt 0.093100 0.845300
vt 0.159400 0.850800
vt 0.257200 0.915100
vt 0.248600 0.859300
vt 0.342800 0.866600
vt 0.376800 0.917600
vt 0.413600 0.867700
vt 0.453800 0.909300
vt 0.128100 0.976300
vt 0.061800 0.891300
vt 0.264300 0.994800
vt 0.406900 0.988200
vt 0.495800 0.964400
vt 0.240700 0.073600
vt 0.293500 0.001400
vt 0.315200 0.063300
vt 0.452600 0.012100
vt 0.452400 0.085300
vt 0.583200 0.133000
vt 0.604000 0.072700
vt 0.674000 0.183100
vt 0.688700 0.121000
vt 0.266400 0.116600
vt 0.337900 0.115300
vt 0.445200 0.138700
vt 0.558800 0.182200
vt 0.631300 0.213200
vt 0.158500 0.666900
vt 0.269800 0.674700
vt 0.290500 0.632900
vt 0.380600 0.698700
vt 0.460600 0.723300
vt 0.133900 0.728200
vt 0.081700 0.663600
vt 0.248700 0.736500
vt 0.368800 0.758600
vt 0.449900 0.776500
vt 0.062100 0.794700
vt 0.138100 0.797200
vt 0.244100 0.805800
vt 0.354300 0.819800
vt 0.433200 0.828400
vt 0.540000 0.724400
vt 0.583300 0.657800
vt 0.641800 0.724300
vt 0.635400 0.551500
vt 0.655300 0.466400
vt 0.621200 0.401400
vt 0.523100 0.795400
vt 0.604500 0.822600
vt 0.676000 0.764900
vt 0.648900 0.878000
vt 0.658700 0.350100
vt 0.494400 0.863500
vt 0.560100 0.907600
vt 0.597600 0.977300
vt 0.680600 0.956300
vt 0.660700 0.997400
vt 0.549300 0.998800
vt 0.658300 0.280300
vt 0.529900 0.375500
vt 0.401200 0.337900
vt 0.284200 0.297400
vt 0.218700 0.275900
vt 0.563700 0.311300
vt 0.421500 0.266200
vt 0.294300 0.228600
vt 0.226700 0.214700
vt 0.563700 0.237800
vt 0.435300 0.193100
vt 0.311600 0.164800
vt 0.241200 0.156700
vt 0.160600 0.291700
vt 0.086600 0.315000
vt 0.025100 0.340800
vt 0.168800 0.204200
vt 0.100700 0.211500
vt 0.030600 0.227600
vt 0.055500 0.726600
vt 0.040200 0.615200
vt 0.192200 0.127100
vt 0.128700 0.108400
vt 0.074900 0.093500
vt 0.001300 0.166300
vt 0.040600 0.095400
vt 0.195800 0.029800
vt 0.130200 0.007200
vt 0.259600 0.571200
vt 0.049900 0.956200
vt 0.710400 0.414600
vt 0.712700 0.238700
vt 0.001100 0.681100
vt 0.017100 0.847400
vn -0.2800 0.2048 -0.9379
vn -0.5648 0.4018 -0.7208
vn -0.3529 0.4287 -0.8317
vn -0.2268 -0.0207 -0.9737
vn -0.5601 0.2288 -0.7962
vn -0.5896 -0.2369 -0.7722
vn -0.2489 -0.1797 -0.9517
vn -0.6411 -0.4128 -0.6470
vn -0.3829 -0.4043 -0.8306
vn -0.0177 0.1940 -0.9808
vn -0.0180 0.4816 -0.8762
vn 0.0032 -0.0142 -0.9999
vn -0.0057 -0.1630 -0.9866
vn 0.0115 -0.4410 -0.8974
vn 0.2825 0.4813 -0.8298
vn 0.2530 0.2018 -0.9462
vn 0.2627 -0.0012 -0.9649
vn 0.2445 -0.1739 -0.9539
vn 0.2967 -0.4032 -0.8657
vn 0.4963 0.4424 -0.7470
vn 0.5246 0.2247 -0.8211
vn 0.5758 0.0010 -0.8176
vn 0.5688 -0.1464 -0.8093
vn 0.5363 -0.3723 -0.7575
vn -0.3817 0.2240 0.8967
vn -0.6080 0.3856 0.6940
vn -0.6551 0.2276 0.7204
vn -0.3616 0.0047 0.9323
vn -0.6566 -0.0030 0.7542
vn -0.6232 -0.2270 0.7484
vn -0.3610 -0.2248 0.9051
vn -0.5721 -0.3569 0.7385
vn -0.4023 -0.4602 0.7915
vn -0.0602 0.2437 0.9680
vn -0.3767 0.4899 0.7862
vn -0.0216 -0.0025 0.9998
vn -0.0357 -0.2139 0.9762
vn -0.0516 -0.5125 0.8571
vn 0.2076 0.5303 0.8220
vn 0.2740 0.2223 0.9357
vn 0.3262 -0.0032 0.9453
vn 0.3040 -0.1918 0.9332
vn 0.2928 -0.4521 0.8426
vn 0.5148 0.4650 0.7203
vn 0.6034 0.1864 0.7754
vn 0.6017 0.0001 0.7987
vn 0.6215 -0.1755 0.7635
vn 0.5604 -0.3709 0.7405
vn -0.8758 0.2866 -0.3885
vn -0.8856 -0.0428 -0.4625
vn -0.6051 -0.0191 -0.7959
vn -0.8559 -0.3135 -0.4112
vn -0.7738 -0.4910 -0.4002
vn -0.9471 0.3022 0.1081
vn -0.7674 0.4568 -0.4499
vn -0.9980 -0.0272 0.0568
vn -0.9479 -0.3185 0.0099
vn -0.8236 -0.5658 -0.0393
vn -0.7144 0.5075 0.4818
vn -0.8569 0.2549 0.4481
vn -0.8564 -0.0087 0.5162
vn -0.8497 -0.2445 0.4671
vn -0.7323 -0.5023 0.4598
vn -0.5232 -0.7210 -0.4542
vn -0.1042 -0.8031 -0.5867
vn 0.3857 -0.7041 -0.5962
vn 0.7587 -0.4448 -0.4760
vn -0.5590 -0.8274 0.0552
vn -0.1547 -0.9879 0.0056
vn 0.4460 -0.8937 0.0484
vn 0.8421 -0.5393 0.0093
vn -0.4942 -0.7222 0.4839
vn -0.1211 -0.8216 0.5571
vn 0.3613 -0.7411 0.5660
vn 0.7290 -0.4776 0.4903
vn 0.8636 -0.2093 -0.4587
vn 0.8563 -0.0055 -0.5165
vn 0.8289 0.2984 -0.4732
vn 0.6564 0.5917 -0.4680
vn 0.9704 -0.2411 -0.0099
vn 0.9999 0.0047 -0.0160
vn 0.9433 0.3312 0.0226
vn 0.7630 0.6463 -0.0081
vn 0.8699 -0.2142 0.4443
vn 0.8703 0.0062 0.4925
vn 0.8596 0.2673 0.4354
vn 0.7092 0.5943 0.3793
vn 0.3497 0.7644 -0.5416
vn -0.0181 0.8394 -0.5433
vn -0.4515 0.7532 -0.4784
vn 0.4063 0.9137 -0.0033
vn -0.0728 0.9973 0.0067
vn -0.4518 0.8863 0.1021
vn -0.8210 0.5691 0.0446
vn 0.3454 0.7831 0.5171
vn -0.0919 0.8410 0.5331
vn -0.4355 0.7370 0.5169
vn -0.0696 0.5417 0.8377
usemtl rock1_mat
s 1
f 1/1/1 2/2/2 3/3/3
f 4/4/4 5/5/5 1/1/1
f 6/6/6 4/4/4 7/7/7
f 8/8/8 7/7/7 9/9/9
f 10/10/10 3/11/3 11/12/11
f 12/13/12 1/14/1 10/10/10
f 7/15/7 12/13/12 13/16/13
f 9/17/9 13/16/13 14/18/14
f 10/10/10 15/19/15 16/20/16
f 12/13/12 16/20/16 17/21/17
f 18/22/18 12/13/12 17/21/17
f 19/23/19 13/16/13 18/22/18
f 16/20/16 20/24/20 21/25/21
f 17/21/17 21/25/21 22/26/22
f 23/27/23 17/21/17 22/26/22
f 24/28/24 18/22/18 23/27/23
f 25/29/25 26/30/26 27/31/27
f 28/32/28 27/31/27 29/33/29
f 28/32/28 30/34/30 31/35/31
f 31/35/31 32/36/32 33/37/33
f 34/38/34 35/39/35 25/29/25
f 36/40/36 25/29/25 28/32/28
f 36/40/36 31/35/31 37/41/37
f 37/41/37 33/37/33 38/42/38
f 39/43/39 34/44/34 40/45/40
f 40/45/40 36/46/36 41/47/41
f 42/48/42 36/46/36 37/49/37
f 43/50/43 37/49/37 38/51/38
f 44/52/44 40/45/40 45/53/45
f 45/53/45 41/47/41 46/54/46
f 47/55/47 41/47/41 42/48/42
f 48/56/48 42/48/42 43/50/43
f 49/57/49 2/2/2 5/5/5
f 50/58/50 5/5/5 51/59/51
f 52/60/52 51/59/51 6/6/6
f 52/60/52 8/8/8 53/61/53
f 54/62/54 55/63/55 49/57/49
f 56/64/56 49/57/49 50/58/50
f 56/64/56 52/60/52 57/65/57
f 57/65/57 53/61/53 58/66/58
f 59/67/59 54/62/54 60/68/60
f 60/68/60 56/64/56 61/69/61
f 61/69/61 57/65/57 62/70/62
f 63/71/63 57/65/57 58/66/58
f 26/30/26 60/68/60 27/31/27
f 27/31/27 61/69/61 29/33/29
f 29/33/29 62/70/62 30/34/30
f 32/36/32 62/70/62 63/71/63
f 53/61/53 9/9/9 64/72/64
f 64/72/64 14/73/14 65/74/65
f 65/75/65 19/23/19 66/76/66
f 67/77/67 19/23/19 24/28/24
f 58/66/58 64/72/64 68/78/68
f 68/78/68 65/74/65 69/79/69
f 69/79/69 66/80/66 70/81/70
f 71/82/71 66/76/66 67/77/67
f 72/83/72 58/66/58 68/78/68
f 73/84/73 68/78/68 69/79/69
f 73/84/73 70/81/70 74/85/74
f 74/85/74 71/86/71 75/87/75
f 33/37/33 63/71/63 72/83/72
f 38/42/38 72/83/72 73/84/73
f 43/88/43 73/84/73 74/85/74
f 43/50/43 75/89/75 48/56/48
f 76/90/76 24/28/24 23/27/23
f 77/91/77 23/27/23 22/26/22
f 77/91/77 21/25/21 78/92/78
f 78/92/78 20/24/20 79/93/79
f 80/94/80 67/77/67 76/90/76
f 81/95/81 76/90/76 77/91/77
f 81/95/81 78/92/78 82/96/82
f 82/96/82 79/93/79 83/97/83
f 75/89/75 80/94/80 84/98/84
f 84/98/84 81/95/81 85/99/85
f 86/100/86 81/95/81 82/96/82
f 87/101/87 82/96/82 83/97/83
f 48/56/48 84/98/84 47/55/47
f 47/55/47 85/99/85 46/54/46
f 45/53/45 85/99/85 86/100/86
f 44/52/44 86/100/86 87/101/87
f 88/102/88 20/24/20 15/19/15
f 88/102/88 11/12/11 89/103/89
f 90/104/90 11/12/11 3/11/3
f 55/63/55 3/3/3 2/2/2
f 83/97/83 88/102/88 91/105/91
f 92/106/92 88/102/88 89/103/89
f 93/107/93 89/103/89 90/104/90
f 94/108/94 90/109/90 55/63/55
f 95/110/95 83/97/83 91/105/91
f 95/110/95 92/106/92 96/111/96
f 97/112/97 92/106/92 93/107/93
f 97/112/97 94/113/94 59/114/59
f 44/52/44 95/110/95 39/43/39
f 98/115/98 95/110/95 96/111/96
f 98/115/98 97/112/97 35/116/35
f 35/39/35 59/67/59 26/30/26
f 1/1/1 5/5/5 2/2/2
f 4/4/4 51/59/51 5/5/5
f 6/6/6 51/59/51 4/4/4
f 8/8/8 6/6/6 7/7/7
f 10/10/10 1/14/1 3/11/3
f 12/13/12 4/117/4 1/14/1
f 7/15/7 4/117/4 12/13/12
f 9/17/9 7/15/7 13/16/13
f 10/10/10 11/12/11 15/19/15
f 12/13/12 10/10/10 16/20/16
f 18/22/18 13/16/13 12/13/12
f 19/23/19 14/18/14 13/16/13
f 16/20/16 15/19/15 20/24/20
f 17/21/17 16/20/16 21/25/21
f 23/27/23 18/22/18 17/21/17
f 24/28/24 19/23/19 18/22/18
f 25/29/25 35/39/35 26/30/26
f 28/32/28 25/29/25 27/31/27
f 28/32/28 29/33/29 30/34/30
f 31/35/31 30/34/30 32/36/32
f 34/38/34 98/118/98 35/39/35
f 36/40/36 34/38/34 25/29/25
f 36/40/36 28/32/28 31/35/31
f 37/41/37 31/35/31 33/37/33
f 39/43/39 98/115/98 34/44/34
f 40/45/40 34/44/34 36/46/36
f 42/48/42 41/47/41 36/46/36
f 43/50/43 42/48/42 37/49/37
f 44/52/44 39/43/39 40/45/40
f 45/53/45 40/45/40 41/47/41
f 47/55/47 46/54/46 41/47/41
f 48/56/48 47/55/47 42/48/42
f 49/57/49 55/63/55 2/2/2
f 50/58/50 49/57/49 5/5/5
f 52/60/52 50/58/50 51/59/51
f 52/60/52 6/6/6 8/8/8
f 54/62/54 94/108/94 55/63/55
f 56/64/56 54/62/54 49/57/49
f 56/64/56 50/58/50 52/60/52
f 57/65/57 52/60/52 53/61/53
f 59/67/59 94/108/94 54/62/54
f 60/68/60 54/62/54 56/64/56
f 61/69/61 56/64/56 57/65/57
f 63/71/63 62/70/62 57/65/57
f 26/30/26 59/67/59 60/68/60
f 27/31/27 60/68/60 61/69/61
f 29/33/29 61/69/61 62/70/62
f 32/36/32 30/34/30 62/70/62
f 53/61/53 8/8/8 9/9/9
f 64/72/64 9/9/9 14/73/14
f 65/75/65 14/18/14 19/23/19
f 67/77/67 66/76/66 19/23/19
f 58/66/58 53/61/53 64/72/64
f 68/78/68 64/72/64 65/74/65
f 69/79/69 65/74/65 66/80/66
f 71/82/71 70/119/70 66/76/66
f 72/83/72 63/71/63 58/66/58
f 73/84/73 72/83/72 68/78/68
f 73/84/73 69/79/69 70/81/70
f 74/85/74 70/81/70 71/86/71
f 33/37/33 32/36/32 63/71/63
f 38/42/38 33/37/33 72/83/72
f 43/88/43 38/42/38 73/84/73
f 43/50/43 74/120/74 75/89/75
f 76/90/76 67/77/67 24/28/24
f 77/91/77 76/90/76 23/27/23
f 77/91/77 22/26/22 21/25/21
f 78/92/78 21/25/21 20/24/20
f 80/94/80 71/82/71 67/77/67
f 81/95/81 80/94/80 76/90/76
f 81/95/81 77/91/77 78/92/78
f 82/96/82 78/92/78 79/93/79
f 75/89/75 71/82/71 80/94/80
f 84/98/84 80/94/80 81/95/81
f 86/100/86 85/99/85 81/95/81
f 87/101/87 86/100/86 82/96/82
f 48/56/48 75/89/75 84/98/84
f 47/55/47 84/98/84 85/99/85
f 45/53/45 46/54/46 85/99/85
f 44/52/44 45/53/45 86/100/86
f 88/102/88 79/93/79 20/24/20
f 88/102/88 15/19/15 11/12/11
f 90/104/90 89/103/89 11/12/11
f 55/63/55 90/109/90 3/3/3
f 83/97/83 79/93/79 88/102/88
f 92/106/92 91/105/91 88/102/88
f 93/107/93 92/106/92 89/103/89
f 94/108/94 93/121/93 90/109/90
f 95/110/95 87/101/87 83/97/83
f 95/110/95 91/105/91 92/106/92
f 97/112/97 96/111/96 92/106/92
f 97/112/97 93/107/93 94/113/94
f 44/52/44 87/101/87 95/110/95
f 98/115/98 39/43/39 95/110/95
f 98/115/98 96/111/96 97/112/97
f 35/39/35 97/122/97 59/67/59
