# Blender v2.79 (sub 0) OBJ File: ''
# www.blender.org
mtllib rockOBJ.mtl
o Box001
v -8.620000 -8.391801 5.900799
v -7.742900 -6.932901 9.667799
v -12.001800 -5.684901 8.269599
v -13.912900 -6.788301 5.325999
v -0.770600 -9.062701 6.103299
v -0.952600 -7.563801 10.108599
v 7.126400 -8.226801 5.227699
v 5.925700 -6.936001 9.014999
v 12.815100 -7.096001 4.510399
v 10.508900 -6.182801 7.515099
v -9.409100 -9.062500 0.250799
v -14.905000 -7.137100 0.316899
v -0.781300 -9.612000 0.116198
v 8.077700 -8.685500 -0.108001
v 14.314600 -7.433500 -0.286401
v -9.243100 -8.431999 -5.456501
v -14.431400 -6.826999 -4.742701
v -1.122900 -8.931199 -5.920601
v 7.482700 -8.332199 -5.563901
v 13.620200 -6.681399 -4.976801
v -8.792800 -6.906699 -9.330301
v -12.988000 -5.795799 -7.926301
v -1.589800 -7.135199 -9.795801
v 6.335100 -6.883399 -9.321001
v 11.771600 -6.074399 -8.167901
v -8.486300 7.585499 5.645001
v -13.737800 5.758599 5.107601
v -11.935100 4.683399 8.036001
v -7.594900 5.669999 9.115901
v -0.777300 8.572599 5.945402
v -0.933700 6.240499 9.499501
v 7.097900 7.762799 5.144301
v 5.780900 5.977798 8.692401
v 12.545000 6.065100 4.261501
v 10.372500 5.124199 7.244301
v -9.392900 8.842200 0.260201
v -14.793400 6.432400 0.321401
v -0.775400 9.612000 0.088002
v 8.087700 8.710400 -0.087999
v 14.221300 6.648500 -0.249799
v -9.221100 8.173701 -5.462099
v -14.320600 6.026801 -4.727699
v -1.100400 8.622001 -5.791698
v 7.482800 8.045300 -5.532999
v 13.520400 6.068201 -4.976999
v -8.819300 6.291202 -9.289499
v -13.218900 5.521801 -8.206800
v -1.536400 6.422401 -9.702799
v 6.316700 6.241801 -9.304599
v 11.729100 5.303001 -8.060999
v -8.510200 -4.249202 11.794699
v -13.620700 -3.537501 9.471799
v -1.176300 -4.658702 12.271899
v 6.255400 -4.398202 10.907799
v 11.683900 -3.823501 8.164299
v -8.947600 -0.735202 11.848400
v -14.491200 -0.554702 9.807900
v -1.288400 -0.544302 13.641200
v 6.626900 -0.432902 11.752500
v 12.525200 -0.368801 8.947600
v -8.319500 2.980698 10.900701
v -13.474500 2.588199 9.122900
v -1.161000 3.420598 11.967201
v 6.255600 3.458598 10.804801
v 11.946400 3.215499 8.578601
v 15.943200 -4.467901 4.848699
v 17.739700 -4.368300 -0.487201
v 17.313200 -4.381299 -5.611001
v 13.584900 -3.787299 -9.149601
v 16.694599 -0.468601 4.760100
v 19.326000 -0.734200 -0.575300
v 18.355801 -0.389799 -5.687100
v 14.570500 -0.344998 -9.795500
v 15.523100 3.286899 4.495100
v 17.643101 3.388200 -0.437199
v 17.097200 3.165401 -5.540200
v 13.658400 3.075701 -9.260099
v 6.987500 -4.278298 -11.481901
v -1.930500 -4.549598 -12.330001
v -9.894400 -4.432798 -11.717401
v -14.580000 -3.676699 -9.079901
v 7.538800 -0.486198 -12.308100
v -2.056200 -0.545998 -13.641200
v -10.439300 -0.459098 -12.205300
v -15.187600 -0.472898 -9.575800
v 7.055700 3.438702 -11.526499
v -1.895900 3.663902 -12.489299
v -9.819300 3.428402 -11.487799
v -14.517400 3.063301 -9.122399
v -17.289600 -4.184399 -5.227100
v -18.306999 -4.497500 0.318899
v -17.113501 -4.261901 5.954500
v -18.565599 -0.446299 -5.640600
v -19.326000 -0.539900 0.297700
v -17.655100 -0.666801 5.966900
v -17.294600 3.377401 -5.214000
v -18.333000 3.597200 0.320401
v -16.400299 2.983899 5.493101
vt 0.188000 0.573600
vt 0.122100 0.623300
vt 0.101400 0.573200
vt 0.315900 0.589400
vt 0.193500 0.622000
vt 0.387100 0.654900
vt 0.438200 0.624100
vt 0.459100 0.683900
vt 0.514000 0.663600
vt 0.184800 0.446100
vt 0.082900 0.425100
vt 0.119100 0.388100
vt 0.315400 0.512000
vt 0.141900 0.499800
vt 0.397000 0.606400
vt 0.461500 0.550000
vt 0.497300 0.609800
vt 0.557700 0.560800
vt 0.171000 0.350700
vt 0.240200 0.390500
vt 0.362500 0.441300
vt 0.493800 0.479400
vt 0.582700 0.494500
vt 0.221600 0.321800
vt 0.283200 0.352200
vt 0.384000 0.388200
vt 0.488800 0.416400
vt 0.568900 0.433400
vt 0.140700 0.902900
vt 0.093100 0.845300
vt 0.159400 0.850800
vt 0.257200 0.915100
vt 0.248600 0.859300
vt 0.342800 0.866600
vt 0.376800 0.917600
vt 0.413600 0.867700
vt 0.453800 0.909300
vt 0.128100 0.976300
vt 0.061800 0.891300
vt 0.264300 0.994800
vt 0.406900 0.988200
vt 0.495800 0.964400
vt 0.240700 0.073600
vt 0.293500 0.001400
vt 0.315200 0.063300
vt 0.452600 0.012100
vt 0.452400 0.085300
vt 0.583200 0.133000
vt 0.604000 0.072700
vt 0.674000 0.183100
vt 0.688700 0.121000
vt 0.266400 0.116600
vt 0.337900 0.115300
vt 0.445200 0.138700
vt 0.558800 0.182200
vt 0.631300 0.213200
vt 0.158500 0.666900
vt 0.269800 0.674700
vt 0.290500 0.632900
vt 0.380600 0.698700
vt 0.460600 0.723300
vt 0.133900 0.728200
vt 0.081700 0.663600
vt 0.248700 0.736500
vt 0.368800 0.758600
vt 0.449900 0.776500
vt 0.062100 0.794700
vt 0.138100 0.797200
vt 0.244100 0.805800
vt 0.354300 0.819800
vt 0.433200 0.828400
vt 0.540000 0.724400
vt 0.583300 0.657800
vt 0.641800 0.724300
vt 0.635400 0.551500
vt 0.655300 0.466400
vt 0.621200 0.401400
vt 0.523100 0.795400
vt 0.604500 0.822600
vt 0.676000 0.764900
vt 0.648900 0.878000
vt 0.658700 0.350100
vt 0.494400 0.863500
vt 0.560100 0.907600
vt 0.597600 0.977300
vt 0.680600 0.956300
vt 0.660700 0.997400
vt 0.549300 0.998800
vt 0.658300 0.280300
vt 0.529900 0.375500
vt 0.401200 0.337900
vt 0.284200 0.297400
vt 0.218700 0.275900
vt 0.563700 0.311300
vt 0.421500 0.266200
vt 0.294300 0.228600
vt 0.226700 0.214700
vt 0.563700 0.237800
vt 0.435300 0.193100
vt 0.311600 0.164800
vt 0.241200 0.156700
vt 0.160600 0.291700
vt 0.086600 0.315000
vt 0.025100 0.340800
vt 0.168800 0.204200
vt 0.100700 0.211500
vt 0.030600 0.227600
vt 0.055500 0.726600
vt 0.040200 0.615200
vt 0.192200 0.127100
vt 0.128700 0.108400
vt 0.074900 0.093500
vt 0.001300 0.166300
vt 0.040600 0.095400
vt 0.195800 0.029800
vt 0.130200 0.007200
vt 0.259600 0.571200
vt 0.049900 0.956200
vt 0.710400 0.414600
vt 0.712700 0.238700
vt 0.001100 0.681100
vt 0.017100 0.847400
vn -0.2048 -0.9379 0.2800
vn -0.4018 -0.7208 0.5648
vn -0.4287 -0.8317 0.3529
vn 0.0207 -0.9737 0.2268
vn -0.2288 -0.7962 0.5601
vn 0.2369 -0.7722 0.5896
vn 0.1797 -0.9517 0.2489
vn 0.4128 -0.6470 0.6411
vn 0.4043 -0.8306 0.3829
vn -0.1940 -0.9809 0.0177
vn -0.4816 -0.8762 0.0179
vn 0.0141 -0.9999 -0.0034
vn 0.1630 -0.9866 0.0057
vn 0.4410 -0.8974 -0.0115
vn -0.4813 -0.8298 -0.2825
vn -0.2017 -0.9462 -0.2529
vn 0.0012 -0.9649 -0.2627
vn 0.1739 -0.9539 -0.2445
vn 0.4032 -0.8657 -0.2967
vn -0.4424 -0.7470 -0.4963
vn -0.2247 -0.8211 -0.5246
vn -0.0010 -0.8176 -0.5758
vn 0.1464 -0.8093 -0.5688
vn 0.3723 -0.7575 -0.5363
vn -0.2240 0.8968 0.3817
vn -0.3856 0.6940 0.6080
vn -0.2276 0.7204 0.6551
vn -0.0048 0.9323 0.3615
vn 0.0030 0.7542 0.6567
vn 0.2270 0.7484 0.6232
vn 0.2248 0.9051 0.3610
vn 0.3569 0.7385 0.5721
vn 0.4602 0.7915 0.4023
vn -0.2437 0.9680 0.0602
vn -0.4899 0.7862 0.3767
vn 0.0025 0.9998 0.0216
vn 0.2139 0.9762 0.0357
vn 0.5125 0.8571 0.0516
vn -0.5303 0.8220 -0.2076
vn -0.2223 0.9357 -0.2740
vn 0.0032 0.9453 -0.3261
vn 0.1918 0.9331 -0.3040
vn 0.4521 0.8426 -0.2928
vn -0.4650 0.7203 -0.5148
vn -0.1864 0.7754 -0.6034
vn -0.0001 0.7987 -0.6017
vn 0.1755 0.7635 -0.6215
vn 0.3709 0.7405 -0.5604
vn -0.2866 -0.3885 0.8758
vn 0.0429 -0.4625 0.8856
vn 0.0191 -0.7960 0.6051
vn 0.3135 -0.4112 0.8559
vn 0.4910 -0.4002 0.7738
vn -0.3022 0.1081 0.9471
vn -0.4568 -0.4499 0.7674
vn 0.0272 0.0568 0.9980
vn 0.3184 0.0099 0.9479
vn 0.5658 -0.0393 0.8236
vn -0.5075 0.4818 0.7144
vn -0.2549 0.4481 0.8569
vn 0.0087 0.5162 0.8564
vn 0.2445 0.4671 0.8497
vn 0.5023 0.4598 0.7323
vn 0.7210 -0.4542 0.5232
vn 0.8031 -0.5867 0.1042
vn 0.7041 -0.5962 -0.3857
vn 0.4448 -0.4760 -0.7587
vn 0.8274 0.0552 0.5590
vn 0.9879 0.0056 0.1547
vn 0.8937 0.0484 -0.4460
vn 0.5393 0.0093 -0.8421
vn 0.7222 0.4839 0.4942
vn 0.8216 0.5571 0.1211
vn 0.7411 0.5660 -0.3613
vn 0.4776 0.4903 -0.7290
vn 0.2093 -0.4587 -0.8636
vn 0.0055 -0.5165 -0.8563
vn -0.2984 -0.4732 -0.8289
vn -0.5917 -0.4680 -0.6564
vn 0.2411 -0.0099 -0.9704
vn -0.0047 -0.0160 -0.9999
vn -0.3312 0.0226 -0.9433
vn -0.6463 -0.0081 -0.7630
vn 0.2142 0.4443 -0.8699
vn -0.0062 0.4925 -0.8703
vn -0.2673 0.4354 -0.8596
vn -0.5943 0.3793 -0.7092
vn -0.7644 -0.5416 -0.3497
vn -0.8394 -0.5433 0.0181
vn -0.7532 -0.4784 0.4515
vn -0.9137 -0.0033 -0.4063
vn -0.9973 0.0067 0.0728
vn -0.8863 0.1021 0.4518
vn -0.5691 0.0446 0.8210
vn -0.7831 0.5171 -0.3454
vn -0.8410 0.5331 0.0919
vn -0.7370 0.5169 0.4355
vn -0.5417 0.8377 0.0696
usemtl rock1_mat
s 1
f 1/1/1 3/2/2 4/3/3
f 5/4/4 2/5/5 1/1/1
f 8/6/6 5/4/4 7/7/7
f 10/8/8 7/7/7 9/9/9
f 11/10/10 4/11/3 12/12/11
f 13/13/12 1/14/1 11/10/10
f 7/15/7 13/13/12 14/16/13
f 9/17/9 14/16/13 15/18/14
f 11/10/10 17/19/15 16/20/16
f 13/13/12 16/20/16 18/21/17
f 19/22/18 13/13/12 18/21/17
f 20/23/19 14/16/13 19/22/18
f 16/20/16 22/24/20 21/25/21
f 18/21/17 21/25/21 23/26/22
f 24/27/23 18/21/17 23/26/22
f 25/28/24 19/22/18 24/27/23
f 26/29/25 28/30/26 29/31/27
f 30/32/28 29/31/27 31/33/29
f 30/32/28 33/34/30 32/35/31
f 32/35/31 35/36/32 34/37/33
f 36/38/34 27/39/35 26/29/25
f 38/40/36 26/29/25 30/32/28
f 38/40/36 32/35/31 39/41/37
f 39/41/37 34/37/33 40/42/38
f 42/43/39 36/44/34 41/45/40
f 41/45/40 38/46/36 43/47/41
f 44/48/42 38/46/36 39/49/37
f 45/50/43 39/49/37 40/51/38
f 47/52/44 41/45/40 46/53/45
f 46/53/45 43/47/41 48/54/46
f 49/55/47 43/47/41 44/48/42
f 50/56/48 44/48/42 45/50/43
f 51/57/49 3/2/2 2/5/5
f 53/58/50 2/5/5 6/59/51
f 54/60/52 6/59/51 8/6/6
f 54/60/52 10/8/8 55/61/53
f 56/62/54 52/63/55 51/57/49
f 58/64/56 51/57/49 53/58/50
f 58/64/56 54/60/52 59/65/57
f 59/65/57 55/61/53 60/66/58
f 62/67/59 56/62/54 61/68/60
f 61/68/60 58/64/56 63/69/61
f 63/69/61 59/65/57 64/70/62
f 65/71/63 59/65/57 60/66/58
f 28/30/26 61/68/60 29/31/27
f 29/31/27 63/69/61 31/33/29
f 31/33/29 64/70/62 33/34/30
f 35/36/32 64/70/62 65/71/63
f 55/61/53 9/9/9 66/72/64
f 66/72/64 15/73/14 67/74/65
f 67/75/65 20/23/19 68/76/66
f 69/77/67 20/23/19 25/28/24
f 60/66/58 66/72/64 70/78/68
f 70/78/68 67/74/65 71/79/69
f 71/79/69 68/80/66 72/81/70
f 73/82/71 68/76/66 69/77/67
f 74/83/72 60/66/58 70/78/68
f 75/84/73 70/78/68 71/79/69
f 75/84/73 72/81/70 76/85/74
f 76/85/74 73/86/71 77/87/75
f 34/37/33 65/71/63 74/83/72
f 40/42/38 74/83/72 75/84/73
f 45/88/43 75/84/73 76/85/74
f 45/50/43 77/89/75 50/56/48
f 78/90/76 25/28/24 24/27/23
f 79/91/77 24/27/23 23/26/22
f 79/91/77 21/25/21 80/92/78
f 80/92/78 22/24/20 81/93/79
f 82/94/80 69/77/67 78/90/76
f 83/95/81 78/90/76 79/91/77
f 83/95/81 80/92/78 84/96/82
f 84/96/82 81/93/79 85/97/83
f 77/89/75 82/94/80 86/98/84
f 86/98/84 83/95/81 87/99/85
f 88/100/86 83/95/81 84/96/82
f 89/101/87 84/96/82 85/97/83
f 50/56/48 86/98/84 49/55/47
f 49/55/47 87/99/85 48/54/46
f 46/53/45 87/99/85 88/100/86
f 47/52/44 88/100/86 89/101/87
f 90/102/88 22/24/20 17/19/15
f 90/102/88 12/12/11 91/103/89
f 92/104/90 12/12/11 4/11/3
f 52/63/55 4/3/3 3/2/2
f 85/97/83 90/102/88 93/105/91
f 94/106/92 90/102/88 91/103/89
f 95/107/93 91/103/89 92/104/90
f 57/108/94 92/109/90 52/63/55
f 96/110/95 85/97/83 93/105/91
f 96/110/95 94/106/92 97/111/96
f 98/112/97 94/106/92 95/107/93
f 98/112/97 57/113/94 62/114/59
f 47/52/44 96/110/95 42/43/39
f 37/115/98 96/110/95 97/111/96
f 37/115/98 98/112/97 27/116/35
f 27/39/35 62/67/59 28/30/26
f 1/1/1 2/5/5 3/2/2
f 5/4/4 6/59/51 2/5/5
f 8/6/6 6/59/51 5/4/4
f 10/8/8 8/6/6 7/7/7
f 11/10/10 1/14/1 4/11/3
f 13/13/12 5/117/4 1/14/1
f 7/15/7 5/117/4 13/13/12
f 9/17/9 7/15/7 14/16/13
f 11/10/10 12/12/11 17/19/15
f 13/13/12 11/10/10 16/20/16
f 19/22/18 14/16/13 13/13/12
f 20/23/19 15/18/14 14/16/13
f 16/20/16 17/19/15 22/24/20
f 18/21/17 16/20/16 21/25/21
f 24/27/23 19/22/18 18/21/17
f 25/28/24 20/23/19 19/22/18
f 26/29/25 27/39/35 28/30/26
f 30/32/28 26/29/25 29/31/27
f 30/32/28 31/33/29 33/34/30
f 32/35/31 33/34/30 35/36/32
f 36/38/34 37/118/98 27/39/35
f 38/40/36 36/38/34 26/29/25
f 38/40/36 30/32/28 32/35/31
f 39/41/37 32/35/31 34/37/33
f 42/43/39 37/115/98 36/44/34
f 41/45/40 36/44/34 38/46/36
f 44/48/42 43/47/41 38/46/36
f 45/50/43 44/48/42 39/49/37
f 47/52/44 42/43/39 41/45/40
f 46/53/45 41/45/40 43/47/41
f 49/55/47 48/54/46 43/47/41
f 50/56/48 49/55/47 44/48/42
f 51/57/49 52/63/55 3/2/2
f 53/58/50 51/57/49 2/5/5
f 54/60/52 53/58/50 6/59/51
f 54/60/52 8/6/6 10/8/8
f 56/62/54 57/108/94 52/63/55
f 58/64/56 56/62/54 51/57/49
f 58/64/56 53/58/50 54/60/52
f 59/65/57 54/60/52 55/61/53
f 62/67/59 57/108/94 56/62/54
f 61/68/60 56/62/54 58/64/56
f 63/69/61 58/64/56 59/65/57
f 65/71/63 64/70/62 59/65/57
f 28/30/26 62/67/59 61/68/60
f 29/31/27 61/68/60 63/69/61
f 31/33/29 63/69/61 64/70/62
f 35/36/32 33/34/30 64/70/62
f 55/61/53 10/8/8 9/9/9
f 66/72/64 9/9/9 15/73/14
f 67/75/65 15/18/14 20/23/19
f 69/77/67 68/76/66 20/23/19
f 60/66/58 55/61/53 66/72/64
f 70/78/68 66/72/64 67/74/65
f 71/79/69 67/74/65 68/80/66
f 73/82/71 72/119/70 68/76/66
f 74/83/72 65/71/63 60/66/58
f 75/84/73 74/83/72 70/78/68
f 75/84/73 71/79/69 72/81/70
f 76/85/74 72/81/70 73/86/71
f 34/37/33 35/36/32 65/71/63
f 40/42/38 34/37/33 74/83/72
f 45/88/43 40/42/38 75/84/73
f 45/50/43 76/120/74 77/89/75
f 78/90/76 69/77/67 25/28/24
f 79/91/77 78/90/76 24/27/23
f 79/91/77 23/26/22 21/25/21
f 80/92/78 21/25/21 22/24/20
f 82/94/80 73/82/71 69/77/67
f 83/95/81 82/94/80 78/90/76
f 83/95/81 79/91/77 80/92/78
f 84/96/82 80/92/78 81/93/79
f 77/89/75 73/82/71 82/94/80
f 86/98/84 82/94/80 83/95/81
f 88/100/86 87/99/85 83/95/81
f 89/101/87 88/100/86 84/96/82
f 50/56/48 77/89/75 86/98/84
f 49/55/47 86/98/84 87/99/85
f 46/53/45 48/54/46 87/99/85
f 47/52/44 46/53/45 88/100/86
f 90/102/88 81/93/79 22/24/20
f 90/102/88 17/19/15 12/12/11
f 92/104/90 91/103/89 12/12/11
f 52/63/55 92/109/90 4/3/3
f 85/97/83 81/93/79 90/102/88
f 94/106/92 93/105/91 90/102/88
f 95/107/93 94/106/92 91/103/89
f 57/108/94 95/121/93 92/109/90
f 96/110/95 89/101/87 85/97/83
f 96/110/95 93/105/91 94/106/92
f 98/112/97 97/111/96 94/106/92
f 98/112/97 95/107/93 57/113/94
f 47/52/44 89/101/87 96/110/95
f 37/115/98 42/43/39 96/110/95
f 37/115/98 97/111/96 98/112/97
f 27/39/35 98/122/97 62/67/59
